# xmcd
#
# Track frame offsets:
#	182
#	20245
#	35870
#	47595
#	65482
#	81407
#	95557
#	113907
#	135070
#	150457
#	166632
#	182270
#	197232
#	208207
#	220107
#	232082
#	249745
#	267245
#	283095
#	294932
#
# Disc length: 4108 seconds
#
# Revision: 2
# Processed by: cddbd v1.4PL0 Copyright (c) Steve Scherf et al.
# Submitted via: audiograbber 1.81.03
#
DISCID=25100a14
DTITLE=DraganStojnic - Bila jet tako lijepa
DYEAR=1900
DGENRE=
TTITLE0=Maestri i violina
TTITLE1=Zasto dolazis samo kisom
TTITLE2=Jelisejska polja
TTITLE3=Zivot koji zivim
TTITLE4=La boheme
TTITLE5=Bila jet ako lijepa
TTITLE6=Jedan covek i jedna zena
TTITLE7=Nema vise romantike
TTITLE8=Zimska je ruza
TTITLE9=Dan za danom
TTITLE10=To je ljubav
TTITLE11=Bice dana
TTITLE12=Ti
TTITLE13=Stari momci
TTITLE14=Kako je tuzna Venecija
TTITLE15=Ide, ide zivot
TTITLE16=C`est la vie
TTITLE17=Ja to znam
TTITLE18=U letnnjoj noci
TTITLE19=Ide voz
EXTD=
EXTT0=
EXTT1=
EXTT2=
EXTT3=
EXTT4=
EXTT5=
EXTT6=
EXTT7=
EXTT8=
EXTT9=
EXTT10=
EXTT11=
EXTT12=
EXTT13=
EXTT14=
EXTT15=
EXTT16=
EXTT17=
EXTT18=
EXTT19=
PLAYORDER=
